# xmcd
#
# Track frame offsets: 
#        150
#        14307
#        44138
#        62369
#        82561
#        103732
#        126575
#        156216
#        196005
#        220530
#        253243
#
# Disc length: 3647 seconds
#
# Revision: 1
# Processed by: cddbd v1.5.2PL0 Copyright (c) Steve Scherf et al.
# Submitted via: ExactAudioCopy v0.95b3
#
DISCID=8e0e3d0b
DTITLE=Eric Clapton - Live at Budokan [CD1]
DYEAR=2001
DGENRE=Blues
TTITLE0=Key to the Highway
TTITLE1=Reptile
TTITLE2=Got you on my Mind
TTITLE3=Tears in Heaven
TTITLE4=Layla
TTITLE5=Bell Bottom Blues
TTITLE6=Change the World
TTITLE7=River of Tears
TTITLE8=Goin' Down Slow
TTITLE9=She's Gone
TTITLE10=I Want a Little Girl
EXTD=
EXTT0=
EXTT1=
EXTT2=
EXTT3=
EXTT4=
EXTT5=
EXTT6=
EXTT7=
EXTT8=
EXTT9=
EXTT10=
PLAYORDER=
